<?xml version="1.0" encoding="utf-8"?>
<!-- Generator: Adobe Illustrator 28.1.0, SVG Export Plug-In . SVG Version: 6.00 Build 0)  -->
<svg version="1.1" id="Layer_1" xmlns="http://www.w3.org/2000/svg" xmlns:xlink="http://www.w3.org/1999/xlink" x="0px" y="0px"
	 viewBox="0 0 64 64" style="enable-background:new 0 0 64 64;" xml:space="preserve">
<style type="text/css">
	.st0{fill:#FFFFFF;}
	.st1{fill:#202224;}
</style>
<g>
	<g>
		<path class="st1" d="M48.26,43.07v0.75H34.69v-0.75h1.87V28.98c0-3.65-0.56-4.87-2.58-4.87c-0.98,0-1.97,0.23-2.9,0.7
			c0.09,0.66,0.14,1.36,0.14,2.15v16.1h1.87v0.75H19.99v-0.75h1.87V28.98c0-3.65-0.56-4.87-2.57-4.87c-0.94,0-1.87,0.19-2.76,0.61
			v18.35h1.87v0.75H4.83v-0.75h2.34V25.99L4.5,23.69l12.03-4.21v4.68c3.79-3.04,6.27-4.45,8.89-4.45c3.18,0,4.96,1.59,5.57,4.63
			c3.93-3.18,6.46-4.63,9.13-4.63c3.98,0,5.8,2.48,5.8,7.25v16.1H48.26z"/>
		<path class="st1" d="M50.51,39.98c0-2.81,1.78-4.54,4.49-4.54c2.71,0,4.49,1.73,4.49,4.54c0,2.81-1.78,4.54-4.49,4.54
			C52.29,44.52,50.51,42.79,50.51,39.98z"/>
	</g>
</g>
</svg>
